<svg xmlns="http://www.w3.org/2000/svg" viewBox="0 0 500 150">
  <defs>
    <linearGradient id="gold" x1="0" x2="1" y1="0" y2="1">
      <stop offset="0%" stop-color="#facc15"/>
      <stop offset="100%" stop-color="#d4af37"/>
    </linearGradient>
  </defs>

  <!-- Botella estilizada -->
  <path d="M60 100c0-10 4-18 8-25V40c0-6 5-10 10-10h10c5 0 10 4 10 10v35c5 7 8 15 8 25 0 12-5 20-12 26s-15 8-24 8-17-2-24-8-12-14-12-26z" fill="url(#gold)" opacity="0.9"/>

  <!-- Efecto de corcho saliendo -->
  <circle cx="108" cy="25" r="6" fill="url(#gold)" />
  <path d="M106 30l12-20" stroke="url(#gold)" stroke-width="3" stroke-linecap="round" />
  <circle cx="121" cy="8" r="3" fill="#facc15" />

  <!-- Texto principal -->
  <text x="150" y="95" fill="url(#gold)" font-size="58" font-family="Poppins, sans-serif" font-weight="600">
    LicoSys
  </text>

  <!-- Subtexto -->
  <text x="152" y="120" fill="#fef9c3" font-size="16" font-family="Poppins, sans-serif" opacity="0.8">
    Sistema de Gestión de Licorería
  </text>
</svg>
