<svg xmlns="http://www.w3.org/2000/svg" width="1100" height="680" viewBox="0 0 1100 680">
  <style>
    .title { font: 700 24px 'Times New Roman', serif; fill: #111; }
    .label { font: 600 16px 'Times New Roman', serif; fill: #111; }
    .small { font: 500 14px 'Times New Roman', serif; fill: #111; }
    .box { fill: #fff; stroke: #222; stroke-width: 2; rx: 8; ry: 8; }
    .line { stroke: #222; stroke-width: 2; fill: none; }
  </style>

  <rect class="box" x="360" y="20" width="380" height="60"/>
  <text class="title" x="550" y="58" text-anchor="middle">Rol: Consulta</text>

  <path class="line" d="M550 80 L550 120" />
  <path class="line" d="M150 120 L930 120" />
  <path class="line" d="M150 120 L150 160" />
  <path class="line" d="M390 120 L390 160" />
  <path class="line" d="M650 120 L650 160" />
  <path class="line" d="M930 120 L930 160" />

  <rect class="box" x="80" y="160" width="140" height="50"/>
  <text class="label" x="150" y="191" text-anchor="middle">Dashboard</text>

  <rect class="box" x="300" y="160" width="180" height="50"/>
  <text class="label" x="390" y="191" text-anchor="middle">Reportes</text>

  <rect class="box" x="570" y="160" width="160" height="50"/>
  <text class="label" x="650" y="191" text-anchor="middle">Inventario</text>

  <rect class="box" x="810" y="160" width="240" height="50"/>
  <text class="label" x="930" y="191" text-anchor="middle">Perfil / Cambio de clave</text>

  <rect class="box" x="220" y="300" width="180" height="46"/>
  <text class="small" x="310" y="329" text-anchor="middle">Reporte de inventario</text>
  <rect class="box" x="220" y="360" width="180" height="46"/>
  <text class="small" x="310" y="389" text-anchor="middle">Reporte bajo stock</text>
  <rect class="box" x="220" y="420" width="180" height="46"/>
  <text class="small" x="310" y="449" text-anchor="middle">Productos por vencer</text>
  <rect class="box" x="220" y="480" width="180" height="46"/>
  <text class="small" x="310" y="509" text-anchor="middle">Ventas consolidadas</text>
  <path class="line" d="M390 210 L390 503" />
  <path class="line" d="M390 323 L400 323" />
  <path class="line" d="M390 383 L400 383" />
  <path class="line" d="M390 443 L400 443" />
  <path class="line" d="M390 503 L400 503" />

  <rect class="box" x="600" y="330" width="200" height="46"/>
  <text class="small" x="700" y="359" text-anchor="middle">Consultar existencias</text>
  <rect class="box" x="600" y="390" width="200" height="46"/>
  <text class="small" x="700" y="419" text-anchor="middle">Estado de productos</text>
  <path class="line" d="M650 210 L650 413" />
  <path class="line" d="M600 353 L650 353" />
  <path class="line" d="M600 413 L650 413" />
</svg>
