<svg xmlns="http://www.w3.org/2000/svg" width="1400" height="780" viewBox="0 0 1400 780">
  <style>
    .title { font: 700 24px 'Times New Roman', serif; fill: #111; }
    .label { font: 600 16px 'Times New Roman', serif; fill: #111; }
    .small { font: 500 14px 'Times New Roman', serif; fill: #111; }
    .box { fill: #fff; stroke: #222; stroke-width: 2; rx: 8; ry: 8; }
    .line { stroke: #222; stroke-width: 2; fill: none; }
  </style>

  <rect class="box" x="510" y="20" width="380" height="60"/>
  <text class="title" x="700" y="58" text-anchor="middle">Rol: Vendedor</text>

  <path class="line" d="M700 80 L700 120" />
  <path class="line" d="M110 120 L1290 120" />
  <path class="line" d="M110 120 L110 160" />
  <path class="line" d="M320 120 L320 160" />
  <path class="line" d="M530 120 L530 160" />
  <path class="line" d="M740 120 L740 160" />
  <path class="line" d="M950 120 L950 160" />
  <path class="line" d="M1180 120 L1180 160" />

  <rect class="box" x="40" y="160" width="140" height="50"/>
  <text class="label" x="110" y="191" text-anchor="middle">Dashboard</text>

  <rect class="box" x="250" y="160" width="140" height="50"/>
  <text class="label" x="320" y="191" text-anchor="middle">Productos</text>

  <rect class="box" x="460" y="160" width="140" height="50"/>
  <text class="label" x="530" y="191" text-anchor="middle">Clientes</text>

  <rect class="box" x="670" y="160" width="140" height="50"/>
  <text class="label" x="740" y="191" text-anchor="middle">Ventas</text>

  <rect class="box" x="880" y="160" width="140" height="50"/>
  <text class="label" x="950" y="191" text-anchor="middle">Ventas POS</text>

  <rect class="box" x="1080" y="160" width="200" height="50"/>
  <text class="label" x="1180" y="191" text-anchor="middle">Perfil / Cambio de clave</text>

  <path class="line" d="M320 210 L320 375" />
  <rect class="box" x="170" y="285" width="200" height="46"/>
  <text class="small" x="270" y="314" text-anchor="middle">Consultar productos</text>
  <rect class="box" x="170" y="345" width="200" height="46"/>
  <text class="small" x="270" y="374" text-anchor="middle">Ver stock disponible</text>
  <path class="line" d="M320 308 L370 308" />
  <path class="line" d="M320 368 L370 368" />

  <path class="line" d="M530 210 L530 375" />
  <rect class="box" x="430" y="285" width="200" height="46"/>
  <text class="small" x="530" y="314" text-anchor="middle">Registrar clientes</text>
  <rect class="box" x="430" y="345" width="200" height="46"/>
  <text class="small" x="530" y="374" text-anchor="middle">Editar clientes</text>
  <path class="line" d="M430 308 L530 308" />
  <path class="line" d="M430 368 L530 368" />

  <path class="line" d="M740 210 L740 375" />
  <rect class="box" x="690" y="285" width="200" height="46"/>
  <text class="small" x="790" y="314" text-anchor="middle">Registrar ventas</text>
  <rect class="box" x="690" y="345" width="200" height="46"/>
  <text class="small" x="790" y="374" text-anchor="middle">Consultar ventas</text>
  <path class="line" d="M740 308 L690 308" />
  <path class="line" d="M740 368 L690 368" />

  <path class="line" d="M950 210 L950 375" />
  <rect class="box" x="1000" y="285" width="220" height="46"/>
  <text class="small" x="1110" y="314" text-anchor="middle">Venta rapida en caja</text>
  <rect class="box" x="1000" y="345" width="220" height="46"/>
  <text class="small" x="1110" y="374" text-anchor="middle">Generar comprobante</text>
  <path class="line" d="M950 308 L1000 308" />
  <path class="line" d="M950 368 L1000 368" />

  <rect class="box" x="595" y="500" width="190" height="50"/>
  <text class="label" x="690" y="531" text-anchor="middle">Reportes</text>
  <path class="line" d="M690 120 L690 500" />

  <path class="line" d="M690 550 L690 640" />
  <path class="line" d="M360 640 L1010 640" />

  <rect class="box" x="220" y="640" width="180" height="46"/>
  <text class="small" x="310" y="669" text-anchor="middle">Ventas por fecha</text>

  <rect class="box" x="600" y="640" width="180" height="46"/>
  <text class="small" x="690" y="669" text-anchor="middle">Ventas por metodo</text>

  <rect class="box" x="870" y="640" width="220" height="46"/>
  <text class="small" x="980" y="669" text-anchor="middle">Productos mas vendidos</text>

  <path class="line" d="M310 640 L310 620 L690 620" />
  <path class="line" d="M690 620 L690 640" />
  <path class="line" d="M980 640 L980 620 L690 620" />
</svg>
